<mxfile host="app.diagrams.net" agent="Mozilla/5.0 (Macintosh; Intel Mac OS X 10_15_7) AppleWebKit/537.36 (KHTML, like Gecko) Chrome/128.0.0.0 Safari/537.36" version="24.7.14">
  <diagram id="6a731a19-8d31-9384-78a2-239565b7b9f0" name="Page-1">
    <mxGraphModel dx="2603" dy="761" grid="1" gridSize="10" guides="1" tooltips="1" connect="1" arrows="1" fold="1" page="1" pageScale="1" pageWidth="1169" pageHeight="827" background="none" math="0" shadow="0">
      <root>
        <mxCell id="0" />
        <mxCell id="1" parent="0" />
        <mxCell id="1GMMGck49zG9ZLLwK4uI-55" value="" style="verticalLabelPosition=bottom;verticalAlign=top;html=1;strokeWidth=2;shape=mxgraph.arrows2.arrow;dy=0.6;dx=40;notch=0;direction=south;" parent="1" vertex="1">
          <mxGeometry x="315" y="25" width="25" height="75" as="geometry" />
        </mxCell>
        <mxCell id="1GMMGck49zG9ZLLwK4uI-56" value="打印改日志时&lt;div&gt;是&lt;span style=&quot;background-color: initial;&quot;&gt;为了让谁看的&lt;/span&gt;&lt;/div&gt;" style="strokeWidth=2;html=1;shape=mxgraph.flowchart.decision;whiteSpace=wrap;" parent="1" vertex="1">
          <mxGeometry x="246.5" y="110" width="162" height="100" as="geometry" />
        </mxCell>
        <mxCell id="1GMMGck49zG9ZLLwK4uI-62" style="edgeStyle=orthogonalEdgeStyle;rounded=0;orthogonalLoop=1;jettySize=auto;html=1;entryX=0.5;entryY=0;entryDx=0;entryDy=0;strokeWidth=2;" parent="1" source="1GMMGck49zG9ZLLwK4uI-58" target="1GMMGck49zG9ZLLwK4uI-61" edge="1">
          <mxGeometry relative="1" as="geometry" />
        </mxCell>
        <mxCell id="1GMMGck49zG9ZLLwK4uI-66" style="edgeStyle=orthogonalEdgeStyle;rounded=0;orthogonalLoop=1;jettySize=auto;html=1;entryX=0.5;entryY=0;entryDx=0;entryDy=0;strokeWidth=2;" parent="1" source="1GMMGck49zG9ZLLwK4uI-58" target="1GMMGck49zG9ZLLwK4uI-65" edge="1">
          <mxGeometry relative="1" as="geometry" />
        </mxCell>
        <mxCell id="1GMMGck49zG9ZLLwK4uI-58" value="是否需要记录变量的状态" style="strokeWidth=2;html=1;shape=mxgraph.flowchart.decision;whiteSpace=wrap;" parent="1" vertex="1">
          <mxGeometry x="50" y="250" width="162" height="100" as="geometry" />
        </mxCell>
        <mxCell id="1GMMGck49zG9ZLLwK4uI-59" style="edgeStyle=orthogonalEdgeStyle;rounded=0;orthogonalLoop=1;jettySize=auto;html=1;entryX=0.5;entryY=0;entryDx=0;entryDy=0;entryPerimeter=0;strokeWidth=2;" parent="1" source="1GMMGck49zG9ZLLwK4uI-56" target="1GMMGck49zG9ZLLwK4uI-58" edge="1">
          <mxGeometry relative="1" as="geometry" />
        </mxCell>
        <mxCell id="1GMMGck49zG9ZLLwK4uI-60" value="给开发人员看" style="text;html=1;align=center;verticalAlign=middle;resizable=0;points=[];autosize=1;strokeColor=none;fillColor=none;strokeWidth=2;" parent="1" vertex="1">
          <mxGeometry x="130" y="160" width="100" height="30" as="geometry" />
        </mxCell>
        <mxCell id="1GMMGck49zG9ZLLwK4uI-61" value="TRACE" style="rounded=0;whiteSpace=wrap;html=1;fillColor=#d5e8d4;strokeColor=#82b366;strokeWidth=2;" parent="1" vertex="1">
          <mxGeometry x="-90" y="400" width="120" height="60" as="geometry" />
        </mxCell>
        <mxCell id="1GMMGck49zG9ZLLwK4uI-63" value="不需要" style="text;html=1;align=center;verticalAlign=middle;resizable=0;points=[];autosize=1;strokeColor=none;fillColor=none;strokeWidth=2;" parent="1" vertex="1">
          <mxGeometry x="-30" y="300" width="60" height="30" as="geometry" />
        </mxCell>
        <mxCell id="1GMMGck49zG9ZLLwK4uI-65" value="DEBUG" style="rounded=0;whiteSpace=wrap;html=1;fillColor=#fff2cc;strokeColor=#d6b656;strokeWidth=2;" parent="1" vertex="1">
          <mxGeometry x="71" y="500" width="120" height="60" as="geometry" />
        </mxCell>
        <mxCell id="1GMMGck49zG9ZLLwK4uI-67" value="需要" style="text;html=1;align=center;verticalAlign=middle;resizable=0;points=[];autosize=1;strokeColor=none;fillColor=none;strokeWidth=2;" parent="1" vertex="1">
          <mxGeometry x="120" y="378" width="50" height="30" as="geometry" />
        </mxCell>
        <mxCell id="1GMMGck49zG9ZLLwK4uI-73" style="edgeStyle=orthogonalEdgeStyle;rounded=0;orthogonalLoop=1;jettySize=auto;html=1;entryX=0.5;entryY=0;entryDx=0;entryDy=0;strokeWidth=2;" parent="1" source="1GMMGck49zG9ZLLwK4uI-69" target="1GMMGck49zG9ZLLwK4uI-72" edge="1">
          <mxGeometry relative="1" as="geometry" />
        </mxCell>
        <mxCell id="1GMMGck49zG9ZLLwK4uI-69" value="该日志记录的状态&lt;div&gt;是否&lt;span style=&quot;background-color: initial;&quot;&gt;是正常流程&lt;/span&gt;&lt;/div&gt;&lt;div&gt;&lt;span style=&quot;background-color: initial;&quot;&gt;不希望出现的&lt;/span&gt;&lt;/div&gt;" style="strokeWidth=2;html=1;shape=mxgraph.flowchart.decision;whiteSpace=wrap;" parent="1" vertex="1">
          <mxGeometry x="430" y="250" width="162" height="100" as="geometry" />
        </mxCell>
        <mxCell id="1GMMGck49zG9ZLLwK4uI-70" style="edgeStyle=orthogonalEdgeStyle;rounded=0;orthogonalLoop=1;jettySize=auto;html=1;entryX=0.5;entryY=0;entryDx=0;entryDy=0;entryPerimeter=0;strokeWidth=2;" parent="1" source="1GMMGck49zG9ZLLwK4uI-56" target="1GMMGck49zG9ZLLwK4uI-69" edge="1">
          <mxGeometry relative="1" as="geometry" />
        </mxCell>
        <mxCell id="1GMMGck49zG9ZLLwK4uI-71" value="运维人员" style="text;html=1;align=center;verticalAlign=middle;resizable=0;points=[];autosize=1;strokeColor=none;fillColor=none;strokeWidth=2;" parent="1" vertex="1">
          <mxGeometry x="420" y="160" width="70" height="30" as="geometry" />
        </mxCell>
        <mxCell id="1GMMGck49zG9ZLLwK4uI-72" value="INFO" style="rounded=0;whiteSpace=wrap;html=1;fillColor=#dae8fc;strokeColor=#6c8ebf;strokeWidth=2;" parent="1" vertex="1">
          <mxGeometry x="288.5" y="400" width="120" height="60" as="geometry" />
        </mxCell>
        <mxCell id="1GMMGck49zG9ZLLwK4uI-74" value="不是" style="text;html=1;align=center;verticalAlign=middle;resizable=0;points=[];autosize=1;strokeColor=none;fillColor=none;strokeWidth=2;" parent="1" vertex="1">
          <mxGeometry x="350" y="300" width="50" height="30" as="geometry" />
        </mxCell>
        <mxCell id="1GMMGck49zG9ZLLwK4uI-79" style="edgeStyle=orthogonalEdgeStyle;rounded=0;orthogonalLoop=1;jettySize=auto;html=1;entryX=0.5;entryY=0;entryDx=0;entryDy=0;strokeWidth=2;" parent="1" source="1GMMGck49zG9ZLLwK4uI-75" target="1GMMGck49zG9ZLLwK4uI-78" edge="1">
          <mxGeometry relative="1" as="geometry">
            <Array as="points">
              <mxPoint x="585" y="414" />
            </Array>
          </mxGeometry>
        </mxCell>
        <mxCell id="1GMMGck49zG9ZLLwK4uI-75" value="该状态是否会导致&lt;div&gt;后续处理无法继续&lt;/div&gt;" style="strokeWidth=2;html=1;shape=mxgraph.flowchart.decision;whiteSpace=wrap;" parent="1" vertex="1">
          <mxGeometry x="610" y="364" width="162" height="100" as="geometry" />
        </mxCell>
        <mxCell id="1GMMGck49zG9ZLLwK4uI-76" style="edgeStyle=orthogonalEdgeStyle;rounded=0;orthogonalLoop=1;jettySize=auto;html=1;entryX=0.5;entryY=0;entryDx=0;entryDy=0;entryPerimeter=0;strokeWidth=2;" parent="1" source="1GMMGck49zG9ZLLwK4uI-69" target="1GMMGck49zG9ZLLwK4uI-75" edge="1">
          <mxGeometry relative="1" as="geometry" />
        </mxCell>
        <mxCell id="1GMMGck49zG9ZLLwK4uI-77" value="是" style="text;html=1;align=center;verticalAlign=middle;resizable=0;points=[];autosize=1;strokeColor=none;fillColor=none;strokeWidth=2;" parent="1" vertex="1">
          <mxGeometry x="650" y="300" width="40" height="30" as="geometry" />
        </mxCell>
        <mxCell id="1GMMGck49zG9ZLLwK4uI-78" value="WARN" style="rounded=0;whiteSpace=wrap;html=1;fillColor=#ffe6cc;strokeColor=#d79b00;strokeWidth=2;" parent="1" vertex="1">
          <mxGeometry x="525" y="500" width="120" height="60" as="geometry" />
        </mxCell>
        <mxCell id="1GMMGck49zG9ZLLwK4uI-85" style="edgeStyle=orthogonalEdgeStyle;rounded=0;orthogonalLoop=1;jettySize=auto;html=1;entryX=0.5;entryY=0;entryDx=0;entryDy=0;strokeWidth=2;" parent="1" source="1GMMGck49zG9ZLLwK4uI-80" target="1GMMGck49zG9ZLLwK4uI-84" edge="1">
          <mxGeometry relative="1" as="geometry">
            <Array as="points">
              <mxPoint x="730" y="520" />
            </Array>
          </mxGeometry>
        </mxCell>
        <mxCell id="1GMMGck49zG9ZLLwK4uI-88" style="edgeStyle=orthogonalEdgeStyle;rounded=0;orthogonalLoop=1;jettySize=auto;html=1;entryX=0.5;entryY=0;entryDx=0;entryDy=0;strokeWidth=2;" parent="1" source="1GMMGck49zG9ZLLwK4uI-80" target="1GMMGck49zG9ZLLwK4uI-87" edge="1">
          <mxGeometry relative="1" as="geometry" />
        </mxCell>
        <mxCell id="1GMMGck49zG9ZLLwK4uI-80" value="该状态是否会&lt;div&gt;导致&lt;span style=&quot;background-color: initial;&quot;&gt;服务崩溃、无法启动等&lt;/span&gt;&lt;/div&gt;" style="strokeWidth=2;html=1;shape=mxgraph.flowchart.decision;whiteSpace=wrap;" parent="1" vertex="1">
          <mxGeometry x="780" y="470" width="162" height="100" as="geometry" />
        </mxCell>
        <mxCell id="1GMMGck49zG9ZLLwK4uI-81" value="否" style="text;html=1;align=center;verticalAlign=middle;resizable=0;points=[];autosize=1;strokeColor=none;fillColor=none;strokeWidth=2;" parent="1" vertex="1">
          <mxGeometry x="580" y="415" width="40" height="30" as="geometry" />
        </mxCell>
        <mxCell id="1GMMGck49zG9ZLLwK4uI-82" style="edgeStyle=orthogonalEdgeStyle;rounded=0;orthogonalLoop=1;jettySize=auto;html=1;entryX=0.5;entryY=0;entryDx=0;entryDy=0;entryPerimeter=0;strokeWidth=2;" parent="1" source="1GMMGck49zG9ZLLwK4uI-75" target="1GMMGck49zG9ZLLwK4uI-80" edge="1">
          <mxGeometry relative="1" as="geometry" />
        </mxCell>
        <mxCell id="1GMMGck49zG9ZLLwK4uI-83" value="是" style="text;html=1;align=center;verticalAlign=middle;resizable=0;points=[];autosize=1;strokeColor=none;fillColor=none;strokeWidth=2;" parent="1" vertex="1">
          <mxGeometry x="790" y="415" width="40" height="30" as="geometry" />
        </mxCell>
        <mxCell id="1GMMGck49zG9ZLLwK4uI-84" value="ERROR" style="rounded=0;whiteSpace=wrap;html=1;fillColor=#e51400;strokeColor=#B20000;fontColor=#ffffff;strokeWidth=2;" parent="1" vertex="1">
          <mxGeometry x="670" y="650" width="120" height="60" as="geometry" />
        </mxCell>
        <mxCell id="1GMMGck49zG9ZLLwK4uI-86" value="否" style="text;html=1;align=center;verticalAlign=middle;resizable=0;points=[];autosize=1;strokeColor=none;fillColor=none;strokeWidth=2;" parent="1" vertex="1">
          <mxGeometry x="730" y="520" width="40" height="30" as="geometry" />
        </mxCell>
        <mxCell id="1GMMGck49zG9ZLLwK4uI-87" value="FATAL" style="rounded=0;whiteSpace=wrap;html=1;fillColor=#a20025;fontColor=#ffffff;strokeColor=#6F0000;strokeWidth=2;" parent="1" vertex="1">
          <mxGeometry x="980" y="650" width="120" height="60" as="geometry" />
        </mxCell>
        <mxCell id="1GMMGck49zG9ZLLwK4uI-89" value="是" style="text;html=1;align=center;verticalAlign=middle;resizable=0;points=[];autosize=1;strokeColor=none;fillColor=none;strokeWidth=2;" parent="1" vertex="1">
          <mxGeometry x="1000" y="520" width="40" height="30" as="geometry" />
        </mxCell>
      </root>
    </mxGraphModel>
  </diagram>
</mxfile>
